{"asset":{"generator":"Khronos glTF Blender I/O v4.4.56","version":"2.0"},"extensionsUsed":["KHR_texture_transform"],"extensionsRequired":["KHR_texture_transform"],"scene":0,"scenes":[{"name":"Scene","nodes":[0]}],"nodes":[{"mesh":0,"name":"tree_small_02_LOD0"}],"materials":[{"doubleSided":true,"name":"tree_small_02_branches","normalTexture":{"extensions":{"KHR_texture_transform":{"offset":[0,0.40000009536743164],"scale":[3,0.5999999046325684]}},"index":0,"texCoord":1},"pbrMetallicRoughness":{"baseColorTexture":{"extensions":{"KHR_texture_transform":{"offset":[0,0.40000009536743164],"scale":[3,0.5999999046325684]}},"index":1,"texCoord":1},"metallicFactor":0,"metallicRoughnessTexture":{"extensions":{"KHR_texture_transform":{"offset":[0,0.40000009536743164],"scale":[3,0.5999999046325684]}},"index":2,"texCoord":1}}},{"alphaMode":"BLEND","doubleSided":true,"name":"tree_small_02_leaves","normalTexture":{"index":3},"pbrMetallicRoughness":{"baseColorTexture":{"index":4},"metallicFactor":0,"metallicRoughnessTexture":{"index":5}}},{"doubleSided":true,"name":"tree_small_02_trunk","normalTexture":{"index":6},"pbrMetallicRoughness":{"baseColorTexture":{"index":7},"metallicFactor":0,"metallicRoughnessTexture":{"index":8}}}],"meshes":[{"name":"BezierCurve.002","primitives":[{"attributes":{"POSITION":0,"NORMAL":1,"TEXCOORD_0":2,"TEXCOORD_1":3},"indices":4,"material":0},{"attributes":{"POSITION":5,"NORMAL":6,"TEXCOORD_0":7,"TEXCOORD_1":8},"indices":9,"material":1},{"attributes":{"POSITION":10,"NORMAL":11,"TEXCOORD_0":12,"TEXCOORD_1":13},"indices":14,"material":2}]}],"textures":[{"sampler":0,"source":0},{"sampler":0,"source":1},{"sampler":0,"source":2},{"sampler":0,"source":3},{"sampler":0,"source":4},{"sampler":0,"source":5},{"sampler":0,"source":6},{"sampler":0,"source":7},{"sampler":0,"source":8}],"images":[{"mimeType":"image/jpeg","name":"tree_small_02_branch_nor_gl","uri":"textures/tree_small_02_branch_nor_gl_1k.jpg"},{"mimeType":"image/jpeg","name":"tree_small_02_branch_diff","uri":"textures/tree_small_02_branch_diff_1k.jpg"},{"mimeType":"image/jpeg","name":"tree_small_02_branch_rough","uri":"textures/tree_small_02_branch_arm_1k.jpg"},{"mimeType":"image/jpeg","name":"tree_small_02_leaves_nor_gl","uri":"textures/tree_small_02_leaves_nor_gl_1k.jpg"},{"mimeType":"image/jpeg","name":"tree_small_02_leaves_diff-tree_small_02_leaves_alpha","uri":"textures/tree_small_02_leaves_diff_1k.jpg"},{"mimeType":"image/jpeg","name":"tree_small_02_leaves_rough","uri":"textures/tree_small_02_leaves_arm_1k.jpg"},{"mimeType":"image/jpeg","name":"tree_small_02_nor_gl","uri":"textures/tree_small_02_nor_gl_1k.jpg"},{"mimeType":"image/jpeg","name":"tree_small_02_diff","uri":"textures/tree_small_02_diff_1k.jpg"},{"mimeType":"image/jpeg","name":"tree_small_02_rough","uri":"textures/tree_small_02_arm_1k.jpg"}],"accessors":[{"bufferView":0,"componentType":5126,"count":5803,"type":"VEC3","min":[-1.095065951347351,1.6900122165679932,-1.222615122795105],"max":[1.4019553661346436,4.380129814147949,2.7926673889160156]},{"bufferView":1,"componentType":5126,"count":5803,"type":"VEC3","min":[-0.9993181228637695,-0.9920478463172913,-0.9996312260627747],"max":[0.9994367361068726,0.9930376410484314,0.9998917579650879]},{"bufferView":2,"componentType":5126,"count":5803,"type":"VEC2"},{"bufferView":3,"componentType":5126,"count":5803,"type":"VEC2"},{"bufferView":4,"componentType":5125,"count":14985,"type":"SCALAR"},{"bufferView":5,"componentType":5126,"count":27728,"type":"VEC3","min":[-1.3086811304092407,1.5308189392089844,-1.329552412033081],"max":[1.5855462551116943,4.502387046813965,2.850529193878174]},{"bufferView":6,"componentType":5126,"count":27728,"type":"VEC3","min":[-0.9997304081916809,-0.9992209076881409,-0.9994996190071106],"max":[0.9997616410255432,0.9999814033508301,0.9999092221260071]},{"bufferView":7,"componentType":5126,"count":27728,"type":"VEC2"},{"bufferView":8,"componentType":5126,"count":27728,"type":"VEC2"},{"bufferView":9,"componentType":5125,"count":60000,"type":"SCALAR"},{"bufferView":10,"componentType":5126,"count":1532,"type":"VEC3","min":[-0.7654515504837036,-0.024031998589634895,-0.39103877544403076],"max":[0.9294251799583435,3.659592866897583,1.9181606769561768]},{"bufferView":11,"componentType":5126,"count":1532,"type":"VEC3","min":[-0.998496413230896,-0.9779182076454163,-0.9998100399971008],"max":[0.9999632835388184,0.9991561770439148,0.9978879690170288]},{"bufferView":12,"componentType":5126,"count":1532,"type":"VEC2"},{"bufferView":13,"componentType":5126,"count":1532,"type":"VEC2"},{"bufferView":14,"componentType":5125,"count":5991,"type":"SCALAR"}],"bufferViews":[{"buffer":0,"byteOffset":0,"byteLength":69636},{"buffer":0,"byteOffset":69636,"byteLength":69636},{"buffer":0,"byteOffset":139272,"byteLength":46424},{"buffer":0,"byteOffset":185696,"byteLength":46424},{"buffer":0,"byteOffset":232120,"byteLength":59940},{"buffer":0,"byteOffset":292060,"byteLength":332736},{"buffer":0,"byteOffset":624796,"byteLength":332736},{"buffer":0,"byteOffset":957532,"byteLength":221824},{"buffer":0,"byteOffset":1179356,"byteLength":221824},{"buffer":0,"byteOffset":1401180,"byteLength":240000},{"buffer":0,"byteOffset":1641180,"byteLength":18384},{"buffer":0,"byteOffset":1659564,"byteLength":18384},{"buffer":0,"byteOffset":1677948,"byteLength":12256},{"buffer":0,"byteOffset":1690204,"byteLength":12256},{"buffer":0,"byteOffset":1702460,"byteLength":23964}],"samplers":[{"magFilter":9729,"minFilter":9987}],"buffers":[{"uri":"tree-mobile.bin","byteLength":1726424}]}