{"asset":{"generator":"Khronos glTF Blender I/O v4.4.56","version":"2.0"},"extensionsUsed":["KHR_texture_transform"],"extensionsRequired":["KHR_texture_transform"],"scene":0,"scenes":[{"name":"Scene","nodes":[0]}],"nodes":[{"mesh":0,"name":"tree_small_02_LOD0"}],"materials":[{"doubleSided":true,"name":"tree_small_02_branches","normalTexture":{"extensions":{"KHR_texture_transform":{"offset":[0,0.40000009536743164],"scale":[3,0.5999999046325684]}},"index":0,"texCoord":1},"pbrMetallicRoughness":{"baseColorTexture":{"extensions":{"KHR_texture_transform":{"offset":[0,0.40000009536743164],"scale":[3,0.5999999046325684]}},"index":1,"texCoord":1},"metallicFactor":0,"metallicRoughnessTexture":{"extensions":{"KHR_texture_transform":{"offset":[0,0.40000009536743164],"scale":[3,0.5999999046325684]}},"index":2,"texCoord":1}}},{"alphaMode":"BLEND","doubleSided":true,"name":"tree_small_02_leaves","normalTexture":{"index":3},"pbrMetallicRoughness":{"baseColorTexture":{"index":4},"metallicFactor":0,"metallicRoughnessTexture":{"index":5}}},{"doubleSided":true,"name":"tree_small_02_trunk","normalTexture":{"index":6},"pbrMetallicRoughness":{"baseColorTexture":{"index":7},"metallicFactor":0,"metallicRoughnessTexture":{"index":8}}}],"meshes":[{"name":"BezierCurve.002","primitives":[{"attributes":{"POSITION":0,"NORMAL":1,"TEXCOORD_0":2,"TEXCOORD_1":3},"indices":4,"material":0},{"attributes":{"POSITION":5,"NORMAL":6,"TEXCOORD_0":7,"TEXCOORD_1":8},"indices":9,"material":1},{"attributes":{"POSITION":10,"NORMAL":11,"TEXCOORD_0":12,"TEXCOORD_1":13},"indices":14,"material":2}]}],"textures":[{"sampler":0,"source":0},{"sampler":0,"source":1},{"sampler":0,"source":2},{"sampler":0,"source":3},{"sampler":0,"source":4},{"sampler":0,"source":5},{"sampler":0,"source":6},{"sampler":0,"source":7},{"sampler":0,"source":8}],"images":[{"mimeType":"image/jpeg","name":"tree_small_02_branch_nor_gl","uri":"textures/tree_small_02_branch_nor_gl_1k.jpg"},{"mimeType":"image/jpeg","name":"tree_small_02_branch_diff","uri":"textures/tree_small_02_branch_diff_1k.jpg"},{"mimeType":"image/jpeg","name":"tree_small_02_branch_rough","uri":"textures/tree_small_02_branch_arm_1k.jpg"},{"mimeType":"image/jpeg","name":"tree_small_02_leaves_nor_gl","uri":"textures/tree_small_02_leaves_nor_gl_1k.jpg"},{"mimeType":"image/jpeg","name":"tree_small_02_leaves_diff-tree_small_02_leaves_alpha","uri":"textures/tree_small_02_leaves_diff_1k.jpg"},{"mimeType":"image/jpeg","name":"tree_small_02_leaves_rough","uri":"textures/tree_small_02_leaves_arm_1k.jpg"},{"mimeType":"image/jpeg","name":"tree_small_02_nor_gl","uri":"textures/tree_small_02_nor_gl_1k.jpg"},{"mimeType":"image/jpeg","name":"tree_small_02_diff","uri":"textures/tree_small_02_diff_1k.jpg"},{"mimeType":"image/jpeg","name":"tree_small_02_rough","uri":"textures/tree_small_02_arm_1k.jpg"}],"accessors":[{"bufferView":0,"componentType":5126,"count":9918,"type":"VEC3","min":[-1.095065951347351,1.6250474452972412,-1.2630820274353027],"max":[1.4185543060302734,4.392509460449219,2.7926673889160156]},{"bufferView":1,"componentType":5126,"count":9918,"type":"VEC3","min":[-0.9993181228637695,-0.9920478463172913,-0.9996781945228577],"max":[0.9994367361068726,0.9930376410484314,0.999987006187439]},{"bufferView":2,"componentType":5126,"count":9918,"type":"VEC2"},{"bufferView":3,"componentType":5126,"count":9918,"type":"VEC2"},{"bufferView":4,"componentType":5125,"count":27000,"type":"SCALAR"},{"bufferView":5,"componentType":5126,"count":172214,"type":"VEC3","min":[-1.3086811304092407,1.4933466911315918,-1.3684636354446411],"max":[1.605745553970337,4.531851768493652,2.8796682357788086]},{"bufferView":6,"componentType":5126,"count":172214,"type":"VEC3","min":[-0.9999698400497437,-0.9992918968200684,-0.999937117099762],"max":[0.9998584985733032,0.9999943971633911,0.9999850988388062]},{"bufferView":7,"componentType":5126,"count":172214,"type":"VEC2"},{"bufferView":8,"componentType":5126,"count":172214,"type":"VEC2"},{"bufferView":9,"componentType":5125,"count":420000,"type":"SCALAR"},{"bufferView":10,"componentType":5126,"count":3923,"type":"VEC3","min":[-0.7654515504837036,-0.024031998589634895,-0.39103877544403076],"max":[0.9294251799583435,3.659592866897583,1.9231672286987305]},{"bufferView":11,"componentType":5126,"count":3923,"type":"VEC3","min":[-0.9999810457229614,-0.9970239400863647,-0.9998540878295898],"max":[0.9999632835388184,0.9991561770439148,0.9983934164047241]},{"bufferView":12,"componentType":5126,"count":3923,"type":"VEC2"},{"bufferView":13,"componentType":5126,"count":3923,"type":"VEC2"},{"bufferView":14,"componentType":5125,"count":17991,"type":"SCALAR"}],"bufferViews":[{"buffer":0,"byteOffset":0,"byteLength":119016},{"buffer":0,"byteOffset":119016,"byteLength":119016},{"buffer":0,"byteOffset":238032,"byteLength":79344},{"buffer":0,"byteOffset":317376,"byteLength":79344},{"buffer":0,"byteOffset":396720,"byteLength":108000},{"buffer":0,"byteOffset":504720,"byteLength":2066568},{"buffer":0,"byteOffset":2571288,"byteLength":2066568},{"buffer":0,"byteOffset":4637856,"byteLength":1377712},{"buffer":0,"byteOffset":6015568,"byteLength":1377712},{"buffer":0,"byteOffset":7393280,"byteLength":1680000},{"buffer":0,"byteOffset":9073280,"byteLength":47076},{"buffer":0,"byteOffset":9120356,"byteLength":47076},{"buffer":0,"byteOffset":9167432,"byteLength":31384},{"buffer":0,"byteOffset":9198816,"byteLength":31384},{"buffer":0,"byteOffset":9230200,"byteLength":71964}],"samplers":[{"magFilter":9729,"minFilter":9987}],"buffers":[{"uri":"tree-optimized.bin","byteLength":9302164}]}